<?xml version="1.0" standalone="no"?>
<!DOCTYPE svg PUBLIC "-//W3C//DTD SVG 20010904//EN"
 "http://www.w3.org/TR/2001/REC-SVG-20010904/DTD/svg10.dtd">
<svg version="1.0" xmlns="http://www.w3.org/2000/svg"
 width="209.000000pt" height="161.000000pt" viewBox="0 0 209.000000 161.000000"
 preserveAspectRatio="xMidYMid meet">
<g transform="translate(0.000000,161.000000) scale(0.100000,-0.100000)" fill="#ff4437" stroke="none">
<path fill="#3f5562" d="M544 1420 c-129 -14 -301 -59 -329 -86 -13 -13 -15 -51 -15 -240 0
-123 3 -224 6 -224 4 0 50 14 102 31 240 76 454 73 610 -11 l52 -28 0 239 0
240 -72 34 c-52 24 -98 37 -158 45 -91 11 -91 11 -196 0z"/>
<path d="M1882 1287 c-38 -40 -134 -77 -230 -89 -111 -14 -269 7 -439 58 -65
19 -130 38 -145 41 l-28 5 0 -76 c0 -91 0 -91 145 -135 159 -48 250 -64 380
-65 149 -1 239 23 304 81 l42 38 -3 83 -3 84 -23 -25z"/>
<path d="M1045 1022 c-11 -12 -5 -150 8 -160 22 -18 186 -70 297 -93 136 -28
309 -31 394 -5 64 19 97 36 139 75 25 23 27 30 27 108 l0 84 -37 -30 c-141
-113 -395 -116 -721 -8 -56 19 -104 32 -107 29z"/>
<path d="M405 836 c-83 -19 -125 -38 -168 -76 l-37 -32 0 -86 0 -86 28 27 c15
14 52 37 82 51 168 76 422 56 765 -59 244 -83 324 -98 495 -99 129 0 151 2
204 23 32 13 76 39 97 58 l39 35 0 85 0 85 -35 -31 c-48 -41 -82 -58 -157 -76
-120 -28 -283 -15 -481 39 -53 15 -116 35 -139 45 -195 83 -541 132 -693 97z"/>
<path d="M440 559 c-77 -11 -158 -43 -202 -80 l-38 -30 0 -85 0 -85 33 25
c163 124 425 123 824 -5 429 -138 675 -143 816 -19 l37 32 0 85 0 85 -36 -32
c-135 -118 -381 -118 -749 0 -323 103 -517 134 -685 109z"/>
</g>
</svg>
